<svg xmlns="http://www.w3.org/2000/svg" xmlns:svg="http://www.w3.org/2000/svg" id="svg2" width="210mm" height="297mm" version="1.1" viewBox="0 0 744.094 1052.362"><defs id="defs4"><clipPath id="clipPath4150" clipPathUnits="userSpaceOnUse"><path id="path4152" d="M 0,500 500,500 500,0 0,0 0,500 Z"/></clipPath><clipPath id="clipPath4160" clipPathUnits="userSpaceOnUse"><path id="path4162" d="M 500,0 0,0 0,500 500,500 500,0 Z"/></clipPath><clipPath id="clipPath4598" clipPathUnits="userSpaceOnUse"><path id="path4600" d="m 159.391,85.6406 192.588,0 0,-45.8008 -192.588,0 0,45.8008 z"/></clipPath></defs><metadata id="metadata7"/><g id="layer1"><g id="g5782" transform="matrix(0.28158171,-0.3490955,0.3490955,0.28158171,169.07834,104.40075)"><path id="path5756" d="m -290.36091,445.44242 c 50.84641,-31.38898 84.32256,-73.04221 103.15454,-123.34881 -40.5414,28.29013 -79.77767,59.29924 -103.15454,123.34881 z" style="fill:#426837;fill-opacity:1;fill-rule:evenodd;stroke:none;stroke-width:1px;stroke-linecap:butt;stroke-linejoin:miter;stroke-opacity:1"/><path id="path5758" d="m -214.49593,448.71716 c -66.60402,-5.39714 -130.32259,-12.98973 -261.97977,31.1101 l 8.73266,13.64478 c 73.3696,-33.32847 158.04651,-47.81142 253.24711,-44.75488 z" style="fill:#426837;fill-opacity:1;fill-rule:evenodd;stroke:none;stroke-width:1px;stroke-linecap:butt;stroke-linejoin:miter;stroke-opacity:1"/><path style="fill:#426837;fill-opacity:1;fill-rule:evenodd;stroke:none;stroke-width:1px;stroke-linecap:butt;stroke-linejoin:miter;stroke-opacity:1" id="path5760" d="m -332.59837,448.34692 c 45.87961,-38.2843 73.10859,-84.26502 84.61398,-136.73428 -36.11839,33.75498 -70.55915,70.01631 -84.61398,136.73428 z"/><path id="path5762" d="m -367.92359,457.7844 c 40.80621,-42.38087 62.14437,-89.93372 67.06982,-141.84685 -31.67669,36.84641 -61.37761,75.9051 -67.06982,141.84685 z" style="fill:#426837;fill-opacity:1;fill-rule:evenodd;stroke:none;stroke-width:.98536152px;stroke-linecap:butt;stroke-linejoin:miter;stroke-opacity:1"/><path style="fill:#426837;fill-opacity:1;fill-rule:evenodd;stroke:none;stroke-width:1px;stroke-linecap:butt;stroke-linejoin:miter;stroke-opacity:1" id="path5764" d="m -410.00092,464.94661 c 40.44047,-43.99084 61.37945,-93.1559 65.8775,-146.68313 -31.36045,38.21594 -60.72793,78.69558 -65.8775,146.68313 z"/><path id="path5766" d="m -462.34222,476.57026 c 40.09031,-44.31018 60.63871,-93.63976 64.71211,-147.20099 -31.05638,38.46346 -60.1019,79.17474 -64.71211,147.20099 z" style="fill:#426837;fill-opacity:1;fill-rule:evenodd;stroke:none;stroke-width:1px;stroke-linecap:butt;stroke-linejoin:miter;stroke-opacity:1"/><path style="fill:#426837;fill-opacity:1;fill-rule:evenodd;stroke:none;stroke-width:.90594399px;stroke-linecap:butt;stroke-linejoin:miter;stroke-opacity:1" id="path5768" d="m -247.25012,448.11434 c 52.17023,-15.32547 91.51444,-43.67122 120.04556,-82.9938 -42.37368,15.05755 -84.24739,32.78763 -120.04556,82.9938 z"/><path style="fill:#426837;fill-opacity:1;fill-rule:evenodd;stroke:none;stroke-width:1px;stroke-linecap:butt;stroke-linejoin:miter;stroke-opacity:1" id="path5770" d="m -227.43093,447.29586 c 55.66332,21.73063 109.07512,23.41103 160.588747,8.18791 -46.988267,-15.36355 -95.363207,-28.04879 -160.588747,-8.18791 z"/><path id="path5772" d="m -284.28177,447.74576 c 39.88068,36.96125 84.37619,56.23812 132.76226,60.60601 -34.63355,-28.68407 -71.30652,-55.57005 -132.76226,-60.60601 z" style="fill:#426837;fill-opacity:1;fill-rule:evenodd;stroke:none;stroke-width:.90594399px;stroke-linecap:butt;stroke-linejoin:miter;stroke-opacity:1"/><path style="fill:#426837;fill-opacity:1;fill-rule:evenodd;stroke:none;stroke-width:.90594399px;stroke-linecap:butt;stroke-linejoin:miter;stroke-opacity:1" id="path5774" d="m -332.63082,452.48294 c 33.97138,42.45642 75.124,68.10618 122.33081,79.58692 -30.00703,-33.49383 -62.29713,-65.5112 -122.33081,-79.58692 z"/><path id="path5776" d="m -372.82484,458.19172 c 29.2997,45.80535 67.51469,75.65603 113.24578,92.05595 -26.30362,-36.47434 -55.03342,-71.72148 -113.24578,-92.05595 z" style="fill:#426837;fill-opacity:1;fill-rule:evenodd;stroke:none;stroke-width:.90594399px;stroke-linecap:butt;stroke-linejoin:miter;stroke-opacity:1"/><path style="fill:#426837;fill-opacity:1;fill-rule:evenodd;stroke:none;stroke-width:.90594399px;stroke-linecap:butt;stroke-linejoin:miter;stroke-opacity:1" id="path5778" d="m -417.09959,465.85027 c 28.63247,46.22537 66.41062,76.627 111.89911,93.68827 -25.77199,-36.85189 -53.98771,-72.51189 -111.89911,-93.68827 z"/><path id="path5780" d="m -464.08912,485.73046 c 28.63247,46.22537 66.41062,76.627 111.89911,93.68827 -25.77199,-36.85189 -53.98771,-72.51189 -111.89911,-93.68827 z" style="fill:#426837;fill-opacity:1;fill-rule:evenodd;stroke:none;stroke-width:.90594399px;stroke-linecap:butt;stroke-linejoin:miter;stroke-opacity:1"/></g><g id="g5735" transform="translate(78.261862,-9.3614668)"><ellipse id="ellipse5737" cx="183.489" cy="410.8" rx="48.979" ry="42.216" style="color:#000;clip-rule:nonzero;display:inline;overflow:visible;visibility:visible;opacity:1;isolation:auto;mix-blend-mode:normal;color-interpolation:sRGB;color-interpolation-filters:linearRGB;solid-color:#000;solid-opacity:1;fill:#412138;fill-opacity:1;fill-rule:nonzero;stroke:none;stroke-width:.99693602;stroke-linecap:round;stroke-linejoin:round;stroke-miterlimit:4;stroke-dasharray:none;stroke-dashoffset:0;stroke-opacity:1;color-rendering:auto;image-rendering:auto;shape-rendering:auto;text-rendering:auto;enable-background:accumulate"/><ellipse style="color:#000;clip-rule:nonzero;display:inline;overflow:visible;visibility:visible;opacity:1;isolation:auto;mix-blend-mode:normal;color-interpolation:sRGB;color-interpolation-filters:linearRGB;solid-color:#000;solid-opacity:1;fill:#592e4c;fill-opacity:1;fill-rule:nonzero;stroke:none;stroke-width:.99693602;stroke-linecap:round;stroke-linejoin:round;stroke-miterlimit:4;stroke-dasharray:none;stroke-dashoffset:0;stroke-opacity:1;color-rendering:auto;image-rendering:auto;shape-rendering:auto;text-rendering:auto;enable-background:accumulate" id="ellipse5739" cx="177.741" cy="410.298" rx="41.012" ry="38.18"/><ellipse style="color:#000;clip-rule:nonzero;display:inline;overflow:visible;visibility:visible;opacity:1;isolation:auto;mix-blend-mode:normal;color-interpolation:sRGB;color-interpolation-filters:linearRGB;solid-color:#000;solid-opacity:1;fill:#c5a2ba;fill-opacity:1;fill-rule:nonzero;stroke:none;stroke-width:.15709594;stroke-linecap:round;stroke-linejoin:round;stroke-miterlimit:4;stroke-dasharray:none;stroke-dashoffset:0;stroke-opacity:1;color-rendering:auto;image-rendering:auto;shape-rendering:auto;text-rendering:auto;enable-background:accumulate" id="ellipse5741" cx="182.781" cy="384.155" rx="8.363" ry="6.139"/><path id="path5743" d="m 153.0866,385.66535 c 3.22225,-2.81866 9.68968,-0.11258 6.37397,2.42232 -12.81582,9.8691 -15.80167,23.61525 -11.15444,40.372 -6.66631,-13.40868 -9.15321,-27.25054 4.78047,-42.79432 z" style="fill:#fff;fill-rule:evenodd;stroke:none;stroke-width:1px;stroke-linecap:butt;stroke-linejoin:miter;stroke-opacity:1"/></g><g id="g5723"><ellipse style="color:#000;clip-rule:nonzero;display:inline;overflow:visible;visibility:visible;opacity:1;isolation:auto;mix-blend-mode:normal;color-interpolation:sRGB;color-interpolation-filters:linearRGB;solid-color:#000;solid-opacity:1;fill:#412138;fill-opacity:1;fill-rule:nonzero;stroke:none;stroke-width:.99693602;stroke-linecap:round;stroke-linejoin:round;stroke-miterlimit:4;stroke-dasharray:none;stroke-dashoffset:0;stroke-opacity:1;color-rendering:auto;image-rendering:auto;shape-rendering:auto;text-rendering:auto;enable-background:accumulate" id="ellipse5715" cx="183.489" cy="410.8" rx="48.979" ry="42.216"/><ellipse id="ellipse5717" cx="177.741" cy="410.298" rx="41.012" ry="38.18" style="color:#000;clip-rule:nonzero;display:inline;overflow:visible;visibility:visible;opacity:1;isolation:auto;mix-blend-mode:normal;color-interpolation:sRGB;color-interpolation-filters:linearRGB;solid-color:#000;solid-opacity:1;fill:#592e4c;fill-opacity:1;fill-rule:nonzero;stroke:none;stroke-width:.99693602;stroke-linecap:round;stroke-linejoin:round;stroke-miterlimit:4;stroke-dasharray:none;stroke-dashoffset:0;stroke-opacity:1;color-rendering:auto;image-rendering:auto;shape-rendering:auto;text-rendering:auto;enable-background:accumulate"/><ellipse id="ellipse5719" cx="182.781" cy="384.155" rx="8.363" ry="6.139" style="color:#000;clip-rule:nonzero;display:inline;overflow:visible;visibility:visible;opacity:1;isolation:auto;mix-blend-mode:normal;color-interpolation:sRGB;color-interpolation-filters:linearRGB;solid-color:#000;solid-opacity:1;fill:#c5a2ba;fill-opacity:1;fill-rule:nonzero;stroke:none;stroke-width:.15709594;stroke-linecap:round;stroke-linejoin:round;stroke-miterlimit:4;stroke-dasharray:none;stroke-dashoffset:0;stroke-opacity:1;color-rendering:auto;image-rendering:auto;shape-rendering:auto;text-rendering:auto;enable-background:accumulate"/><path style="fill:#fff;fill-rule:evenodd;stroke:none;stroke-width:1px;stroke-linecap:butt;stroke-linejoin:miter;stroke-opacity:1" id="path5721" d="m 153.0866,385.66535 c 3.22225,-2.81866 9.68968,-0.11258 6.37397,2.42232 -12.81582,9.8691 -15.80167,23.61525 -11.15444,40.372 -6.66631,-13.40868 -9.15321,-27.25054 4.78047,-42.79432 z"/></g><g id="g5729"><ellipse id="path5707" cx="234.602" cy="443.378" rx="44.673" ry="42.216" style="color:#000;clip-rule:nonzero;display:inline;overflow:visible;visibility:visible;opacity:1;isolation:auto;mix-blend-mode:normal;color-interpolation:sRGB;color-interpolation-filters:linearRGB;solid-color:#000;solid-opacity:1;fill:#412138;fill-opacity:1;fill-rule:nonzero;stroke:none;stroke-width:.99693602;stroke-linecap:round;stroke-linejoin:round;stroke-miterlimit:4;stroke-dasharray:none;stroke-dashoffset:0;stroke-opacity:1;color-rendering:auto;image-rendering:auto;shape-rendering:auto;text-rendering:auto;enable-background:accumulate"/><ellipse style="color:#000;clip-rule:nonzero;display:inline;overflow:visible;visibility:visible;opacity:1;isolation:auto;mix-blend-mode:normal;color-interpolation:sRGB;color-interpolation-filters:linearRGB;solid-color:#000;solid-opacity:1;fill:#592e4c;fill-opacity:1;fill-rule:nonzero;stroke:none;stroke-width:.99693602;stroke-linecap:round;stroke-linejoin:round;stroke-miterlimit:4;stroke-dasharray:none;stroke-dashoffset:0;stroke-opacity:1;color-rendering:auto;image-rendering:auto;shape-rendering:auto;text-rendering:auto;enable-background:accumulate" id="ellipse5713" cx="229.36" cy="442.876" rx="37.406" ry="38.18"/><ellipse style="color:#000;clip-rule:nonzero;display:inline;overflow:visible;visibility:visible;opacity:1;isolation:auto;mix-blend-mode:normal;color-interpolation:sRGB;color-interpolation-filters:linearRGB;solid-color:#000;solid-opacity:1;fill:#c5a2ba;fill-opacity:1;fill-rule:nonzero;stroke:none;stroke-width:.15709594;stroke-linecap:round;stroke-linejoin:round;stroke-miterlimit:4;stroke-dasharray:none;stroke-dashoffset:0;stroke-opacity:1;color-rendering:auto;image-rendering:auto;shape-rendering:auto;text-rendering:auto;enable-background:accumulate" id="ellipse5709" cx="233.956" cy="416.733" rx="7.628" ry="6.139"/><path id="path5711" d="m 206.87317,418.24325 c 2.93895,-2.81866 8.83776,-0.11258 5.81357,2.42232 -11.68905,9.8691 -14.41238,23.61525 -10.17374,40.372 -6.0802,-13.40868 -8.34845,-27.25054 4.36017,-42.79432 z" style="fill:#fff;fill-rule:evenodd;stroke:none;stroke-width:1px;stroke-linecap:butt;stroke-linejoin:miter;stroke-opacity:1"/></g></g></svg>